<?xml version="1.0" encoding="utf-8"?>
<!-- Generator: Adobe Illustrator 19.1.0, SVG Export Plug-In . SVG Version: 6.00 Build 0)  -->
<svg version="1.1" id="Layer_1" xmlns="http://www.w3.org/2000/svg" xmlns:xlink="http://www.w3.org/1999/xlink" x="0px" y="0px"
	 viewBox="-130 222 350 350" style="enable-background:new -130 222 350 350;" xml:space="preserve">
<style type="text/css">
	.st0{fill:#3A73B8;}
</style>
<g id="_x23_3a73b8ff">
	<path class="st0" d="M30.5,232.7c32.7-2.5,66,5.1,94.3,21.5c22.7,13.1,42.3,31.5,56.5,53.5c17.6,26.9,26.9,59.1,26.7,91.3
		c-0.2,33.6-10.9,67.1-30.5,94.5c-19.8,28.1-48.7,49.7-81.2,60.7c-28.9,10-60.6,11.6-90.4,4.9c-31.3-7-60.3-23.4-82.5-46.5
		c-23.6-24.4-39.5-56.1-44.4-89.7c-4.8-29.9-0.8-61.1,10.9-89c10.8-26,28.5-49,50.6-66.4C-33.9,247.3-2.1,234.9,30.5,232.7
		 M30.5,240.6c-19.4,1.4-38.5,6.6-56,15c-28.2,13.6-52.3,35.7-68,62.9c-23.3,39.2-27.8,88.8-12.5,131.6
		c9.8,27.9,27.7,52.8,50.8,71.1c26.9,21.3,60.9,33.6,95.2,33.9c25.1,0.5,50.3-5.2,72.7-16.4c28.5-14.1,52.5-37.2,67.8-65.1
		c15.3-27.7,22-60.1,18.6-91.6c-4.5-51.1-36.4-98.4-81.4-122.6C91.3,244.8,60.5,238.2,30.5,240.6z"/>
	<path class="st0" d="M2.6,255.6c27.5-7.7,57.3-7.3,84.5,1.4c1.2,0.4,2.1,1.2,3,2c-4.5-0.3-8.6-2.4-13-3.1
		c-11.1-2.2-22.6-3.3-33.9-1.6c-7.1,1.3-14.5,4-18.9,9.9c-3.4,4.4-3.7,11.3,0.2,15.4c4.3,4.6,12,4.3,16.9,0.6
		c5.7-4.2,11.2-9.1,18.3-10.7c14.4-3.6,29.5-0.7,43.5,3.4c16.8,4.6,32.6,12.8,45.5,24.6c21.4,18.9,34.3,46.1,39.2,74
		c4.3,23.8,3,48.6-4.4,71.7c-0.3,1.1-1,1.7-2.1,1.9c4.3-15.7,7.5-32.3,4.3-48.5c-1.7-7.8-5.5-16.6-13.8-19.3c-6.3-2.2-14,2.1-14.5,9
		c-1.2,7.3,4.8,12.6,8.5,18.1c8,11.5,7,26.4,5.1,39.6c-3.7,17.9-9.6,35.6-20.5,50.5c-16.7,24-43.3,39.8-71.4,46.5
		c-24.4,5.8-50.3,5.8-74.7-0.2c-3.2-1-6.9-1.4-9.3-3.8c4.7,0,9,2,13.5,2.7c12.4,2.3,25.4,3.7,37.8,0.5c5.6-1.5,11.3-4.2,14.9-9
		c3.3-4.5,3.2-11.4-0.8-15.4c-3.5-3.7-9.3-4.4-13.8-2.1c-5.3,2.9-9.4,7.6-14.8,10.3c-10.9,5.3-23.6,4.5-35.2,2.6
		c-19.3-3.8-38.4-10.8-53.9-23.1c-20.7-15.9-35-39-42-64c-7.4-26.1-7.5-54.2-0.7-80.4c1.2-2.7,0.7-7,3.8-8.3
		c-4,15-7.1,30.7-4.7,46.3c1.2,6.9,3.6,14.2,9.3,18.7c4,3.3,10.2,4.5,14.5,1.3c4.7-2.7,6.2-9.2,4-14c-2.3-5.4-6.9-9.3-9.6-14.5
		c-5.7-10.5-5.1-23-3.6-34.4c3.2-18.4,9.4-36.5,20.3-51.8C-49.8,278.9-24.5,262.9,2.6,255.6 M6.3,311.3c-9,4.8-15.1,13.5-19.6,22.4
		c-4.8,9.1-6.8,19.4-7.7,29.5c-4.4-0.6-8-4-9-8.3c-2.1-6.3,0.1-12.7,1.2-18.9c0.5-1.8-0.9-3.3-1.6-4.8c-3.8-0.2-7.6,1.6-9.3,5.1
		c-5.1,9.6-4.7,22.5,2.4,31c4.1,5.1,10.5,7.7,16.8,8.4c2.2,6.6,6.3,13.1,13.1,15.7c8.3,3.3,17.3-0.2,24.5-4.5
		c-0.3,2.7-0.4,5.4-1.3,7.9c-2.5,2-5.6,3.2-8.4,4.8c-13.8,7.3-28,14.6-39.6,25.3c-8.5,8-15.2,18.5-16.4,30.3
		c-0.6,9.2,3.1,19.3,11.1,24.4c8.4,5.6,19.6,5.3,28.8,1.8c11.6-4.4,20.3-14.3,26-25c8.5-15.2,9.9-32.9,11.1-49.9
		c0.3-2-0.1-4.8,2.3-5.7c13.8-7.8,27.2-16.2,40.1-25.5c1.5,1.9,3,3.8,4.4,5.7C68.6,384.8,62,389,57,395c-18.7,20.4-19,55.4,0.6,75.4
		c10,10.6,25.4,15.1,39.6,13c13.1-1.9,25-10.1,31.6-21.5c8.8-14.5,7.4-34.8-4.1-47.5c-10.7-11.8-31.5-11.6-42,0.4
		c-8.2,8.7-8.5,24,0.1,32.5c3.5,3.5,9.5,5.6,13.9,2.6c2.8-2,2.5-6.4,0.3-8.7c-2.9-3.5-6.4-7.7-5.5-12.6c0.9-6.4,8.1-10.4,14.2-9
		c5.2,0.8,9.4,4.9,11.3,9.6c4.6,10.8,2,24.2-6.2,32.7c-8.7,9-23.7,10.4-34.2,3.8c-9.3-5.7-14.6-16.3-16.2-26.8
		c-1.7-12.7,0.7-26.3,8.6-36.7c5.1-6.5,12.1-11.9,20.2-13.8c6.8,0.5,13.9,1.8,20.6-0.4c3.1-1.1,6.2-4.6,4.6-8
		c-1.7-3.5-6-4.6-9.5-5.3c-5.3-1.1-10.6,0.4-15.7,1.4c-3.6-1.2-5.5-5-6.9-8.4c10-7.5,20-15.7,26.8-26.3c4-6.4,6.5-14.3,4.7-21.8
		c-1.5-5-5.6-9.2-10.8-10.2c-8.7-2.2-17.6,2.2-23.5,8.4C69.9,327.8,65.1,342,65.5,356c-0.1,2.9,1,5.9,0.2,8.7
		C58.6,370.4,50.6,375,43,380c-4.4,2.6-8.6,5.5-13.3,7.6c0.1-4.4,0.3-8.9,1.6-13.2c3.4-4.6,7.6-8.6,10.3-13.7c2-3.5,3.8-8,1.8-11.9
		c-1.9-2.9-6-2.6-8.7-1.2c-5.8,2.9-8.9,9-11.3,14.8c-1.6,3.7-1.8,8.2-5.2,10.8c-4.8,4.2-10.5,8.3-17.1,8.1c-3.8,0-6.3-3.5-7.1-6.9
		c10.5-4.1,19.2-11.6,26.3-20.2c6.6-8.4,11.8-18.4,12.6-29.1c0.5-5.4-1.4-11.6-6.4-14.4C20.2,307.2,12.4,308.1,6.3,311.3z"/>
	<path class="st0" d="M12.3,321.3c2.4-1.8,6.4-1.1,7.6,1.9c0.9,3.7-0.5,7.4-2,10.6c-4.4,9-11,16.9-18.6,23.5c-1.9,1.7-4.1,3-6.4,4.1
		c0.3-8,3.1-15.8,6.5-23C2.6,332,6.3,325.4,12.3,321.3z"/>
	<path class="st0" d="M90.5,324.4c2.1-2.5,5.9-5,9.1-3.3c3.6,2.1,1.7,6.9,0.3,9.8c-4.9,9.1-12.3,16.8-20.2,23.4
		C79.6,343.6,83.4,332.7,90.5,324.4z"/>
	<path class="st0" d="M-16.6,429.5c9.3-7.8,19.7-14.6,30.8-19.7c-1.2,12.2-4,24.4-8.7,35.8c-4,9.2-9.9,18.6-19.6,22.4
		c-5.1,1.9-11.7,3.1-16-0.9c-4.1-3.7-3.9-9.9-2.7-14.9C-30.3,443-23.5,435.7-16.6,429.5z"/>
</g>
</svg>
