<?xml version="1.0" encoding="utf-8"?>
<!-- Generator: Adobe Illustrator 20.1.0, SVG Export Plug-In . SVG Version: 6.00 Build 0)  -->
<svg version="1.1" id="Layer_1" xmlns="http://www.w3.org/2000/svg" xmlns:xlink="http://www.w3.org/1999/xlink" x="0px" y="0px"
	 viewBox="0 0 570 206.4" style="enable-background:new 0 0 570 206.4;" xml:space="preserve">
<style type="text/css">
	.st0{fill:#FFFFFF;}
</style>
<g>
	<g>
		<path class="st0" d="M115.4,11.2c-25.5,0-48.5,10.3-65.2,27s-27,39.7-27,65.2s10.3,48.5,27,65.2s39.7,27,65.2,27s48.5-10.3,65-27
			c16.7-16.7,27-39.7,27-65.2s-10.3-48.5-27-65.2S140.7,11.2,115.4,11.2 M188,30.7L188,30.7 M115.4,0c57,0,103.2,46.2,103.2,103.2
			s-46.2,103.2-103.2,103.2S12.2,160.3,12.2,103.2C12.1,46.3,58.4,0,115.4,0 M42.7,30.7L42.7,30.7"/>
		<path class="st0" d="M66.5,102.4c0-6-4-9.5-9.7-9.5h-3.5v18.9h3.4C62.1,112,66.5,109,66.5,102.4 M128.2,109.2l-25.5,20.1
			l-23.3-18.4c-3.4,8.1-11.5,13.6-20.9,13.6H38.6V80h19.9c10.4,0,17.9,6.6,20.9,13.6l23.3-18.4l8.6,6.7L90,98.9l4.1,3.2l21.3-16.7
			l8.6,6.7l-21.3,16.7l4.1,3.2l21.3-16.7V80h15.5v31.4h15.5v13h-31v-15.2H128.2z M178.6,111.7h15.5v13h-31V80.2h15.5V111.7
			L178.6,111.7z"/>
	</g>
	<g>
		<g>
			<polygon class="st0" points="403.9,101.2 493.2,101.2 493.2,21.9 403.9,34.5 			"/>
			<polygon class="st0" points="401.2,101.2 401.2,34.8 332.8,44.5 332.8,101.2 			"/>
			<polygon class="st0" points="401.2,103.8 332.8,103.8 332.8,160.6 401.2,170.1 			"/>
			<polygon class="st0" points="403.9,103.8 403.9,170.5 493.2,183 493.2,103.8 			"/>
		</g>
	</g>
</g>
</svg>
