<svg id="Layer_1" data-name="Layer 1" xmlns="http://www.w3.org/2000/svg" viewBox="0 0 124.5 55.5"><defs><style>.cls-1{fill:#1c3444;}</style></defs><title>logoblue</title><path class="cls-1" d="M64.25,31.8H67s-.4,4.2,3.3,4.2,5.8-2.8,9.3-2.8c4,0,6.7,2.9,6.7,8.2,0,7.8-10.8,9-10.8,9s7.7-2.2,7.7-8.4c0-5.2-3-5.2-3.6-5.2-3,0-4.4,2.4-8.4,2.4-3.3,0-5.1-1.8-5.6-3.1h0c-.5,1.3-2.3,3.1-5.6,3.1-4,0-5.3-2.4-8.4-2.4-.7,0-3.6,0-3.6,5.2,0,6.2,7.7,8.4,7.7,8.4s-10.8-1.2-10.8-9.1c0-5.2,2.7-8.2,6.7-8.2,3.5,0,5.6,2.8,9.3,2.8s3.3-4.1,3.3-4.1h2.9" transform="translate(-3.45 -1.6)"/><path class="cls-1" d="M65.65,57.1c22.6,0,29.5-13,29.5-13s25.4-5.6,25.4-17.7c0-6.7-14.3-7.1-14.3-7.1,0,14.7-12.1,16.6-17.3,19.3-2.3,1.3-2.7,2.3-2.7,2.3s0,5.3-5.9,7.9-14.7,2.5-14.7,2.5-8.9.2-14.9-2.3-5.9-7.9-5.9-7.9-.3-1.1-2.7-2.3c-5.2-2.7-17.3-4.7-17.3-19.3,0,0-14.3.4-14.3,7.1C10.55,38.7,36,44.3,36,44.3S43.15,57.1,65.65,57.1Z" transform="translate(-3.45 -1.6)"/><path class="cls-1" d="M9.25,22.7a.22.22,0,0,1,.2.2c0,.1,0,.1-.1.2a4.94,4.94,0,0,0-1.9,4.2c0,5.3,5.2,8.4,7.8,9.5.1,0,.1.2.1.2s-.1.1-.2.1c-3.5-.6-11.7-2.7-11.7-8.6C3.45,24.4,7.35,23.1,9.25,22.7Z" transform="translate(-3.45 -1.6)"/><path class="cls-1" d="M68.85,1.6h-6.4s1.1,8.1-6.4,8.1c-8,0-10.6-5.5-18.1-5.5-8.1,0-13,5.7-13,16.1a16.65,16.65,0,0,0,10.3,15.6,32.63,32.63,0,0,1-4.1-15.2c0-7.1,3.4-9.5,6.8-9.5,5.8,0,9.1,4.7,17.1,4.7,5.8,0,9.7-4,10.4-6.2,0-.1.1-.1.2-.1a.1.1,0,0,1,.1.1c.7,2.2,4.7,6.2,10.4,6.2,8,0,11.4-4.7,17.1-4.7,3.4,0,6.8,2.4,6.8,9.5a32.31,32.31,0,0,1-4.1,15.2,16.63,16.63,0,0,0,10.4-15.7c0-10.4-4.9-16.1-13-16.1-7.5,0-10.1,5.5-18.1,5.5-7.5,0-6.4-8-6.4-8h-6.4" transform="translate(-3.45 -1.6)"/><path class="cls-1" d="M84.65,30.3a.56.56,0,0,1-.5-.6c.1-2.2.8-10.3,4.5-10.3s3.8,7.4,3.8,9.1a.55.55,0,0,1-.3.5A12.92,12.92,0,0,1,84.65,30.3Z" transform="translate(-3.45 -1.6)"/><path class="cls-1" d="M75.65,45.8c-.1,0-.1,0-.1-.1v-.1c.4-1,1.9-4.9,3.9-3.8S76.75,45.3,75.65,45.8Z" transform="translate(-3.45 -1.6)"/><path class="cls-1" d="M122.15,22.7a.22.22,0,0,0-.2.2c0,.1,0,.1.1.2a4.94,4.94,0,0,1,1.9,4.2c0,5.3-5.2,8.4-7.8,9.5-.1,0-.1.2-.1.2s.1.1.2.1c3.5-.6,11.7-2.7,11.7-8.6C127.95,24.4,124,23.1,122.15,22.7Z" transform="translate(-3.45 -1.6)"/><path class="cls-1" d="M55.75,45.8c.1,0,.1,0,.1-.1v-.1c-.4-1-1.9-4.9-3.9-3.8S54.55,45.3,55.75,45.8Z" transform="translate(-3.45 -1.6)"/><path class="cls-1" d="M46.75,30.3a.56.56,0,0,0,.5-.6c-.1-2.2-.8-10.3-4.5-10.3s-3.9,7.4-3.8,9.1a.55.55,0,0,0,.3.5A12.92,12.92,0,0,0,46.75,30.3Z" transform="translate(-3.45 -1.6)"/></svg>