<svg id="Layer_1" data-name="Layer 1" xmlns="http://www.w3.org/2000/svg" viewBox="0 0 131.43 58.69"><defs><style>.cls-1,.cls-2{fill:#fff;}.cls-1{isolation:isolate;}</style></defs><title>SHFullMock</title><path class="cls-1" d="M64.22,31.94h3s-.39,4.46,3.51,4.46,6.1-3,9.82-3c4.27,0,7.1,3.1,7.1,8.64,0,8.26-11.41,9.54-11.41,9.54s8.11-2.3,8.11-8.89c0-5.46-3.12-5.44-3.85-5.44-3.21,0-4.6,2.53-8.84,2.53-3.51,0-5.38-1.87-5.92-3.24h0c-.54,1.36-2.42,3.23-5.92,3.23-4.24,0-5.63-2.53-8.84-2.53-.72,0-3.84,0-3.84,5.44,0,6.59,8.11,8.89,8.11,8.89S43.8,50.3,43.8,42c0-5.54,2.83-8.64,7.1-8.64,3.71,0,5.92,3,9.82,3s3.51-4.46,3.51-4.46h3"/><path class="cls-1" d="M65.72,58.69c23.84,0,31.11-13.75,31.11-13.75S123.69,39,123.69,26.26c0-7.12-15.13-7.49-15.13-7.49,0,15.49-12.77,17.52-18.22,20.41-2.48,1.32-2.84,2.47-2.84,2.47s0,5.64-6.22,8.37-15.56,2.46-15.56,2.46S56.29,52.71,50,50s-6.22-8.37-6.22-8.37-.35-1.15-2.84-2.47c-5.46-2.9-18.22-4.92-18.22-20.41,0,0-15.13.37-15.13,7.49C7.61,39,34.47,44.9,34.47,44.9S41.88,58.69,65.72,58.69Z"/><path class="cls-1" d="M6.08,22.34a.2.2,0,0,1,.16.35,5.34,5.34,0,0,0-2,4.48c0,5.62,5.48,8.83,8.21,10.08a.2.2,0,0,1-.12.38C8.65,37,0,34.83,0,28.53,0,24.14,4.1,22.75,6.08,22.34Z"/><path class="cls-1" d="M69.09,0H62.34s1.18,8.51-6.74,8.51c-8.46,0-11.21-5.83-19.14-5.83-8.57,0-13.73,6.06-13.73,17A17.46,17.46,0,0,0,33.59,36.25a34.2,34.2,0,0,1-4.38-16.09c0-7.49,3.59-10,7.23-10,6.09,0,9.64,5,18.1,5,6.1,0,10.25-4.23,11-6.54a.14.14,0,0,1,.27,0c.79,2.3,4.94,6.54,11,6.54,8.46,0,12-5,18.1-5,3.64,0,7.23,2.5,7.23,10a34.2,34.2,0,0,1-4.38,16.09A17.46,17.46,0,0,0,108.7,19.7c0-11-5.16-17-13.73-17C87,2.68,84.29,8.51,75.84,8.51,67.91,8.51,69.09,0,69.09,0H62.34"/><path class="cls-2" d="M85.76,30.34a.63.63,0,0,1-.56-.66c.12-2.34.84-10.83,4.75-10.83S94,26.7,94,28.48a.63.63,0,0,1-.34.55A13.75,13.75,0,0,1,85.76,30.34Z"/><path class="cls-2" d="M76.2,46.72a.12.12,0,0,1-.16-.15c.39-1.09,2-5.2,4.11-4S77.39,46.17,76.2,46.72Z"/><path class="cls-1" d="M125.35,22.34a.2.2,0,0,0-.16.35,5.34,5.34,0,0,1,2,4.48c0,5.62-5.48,8.83-8.21,10.08a.2.2,0,0,0,.12.38c3.68-.64,12.33-2.8,12.33-9.1C131.43,24.14,127.33,22.75,125.35,22.34Z"/><path class="cls-2" d="M55.23,46.72a.12.12,0,0,0,.16-.15c-.38-1.09-2-5.2-4.11-4S54,46.17,55.23,46.72Z"/><path class="cls-2" d="M45.67,30.34a.63.63,0,0,0,.56-.66c-.12-2.34-.84-10.83-4.75-10.83s-4.1,7.85-4.06,9.63a.63.63,0,0,0,.34.55A13.76,13.76,0,0,0,45.67,30.34Z"/></svg>
