<?xml version="1.0" encoding="utf-8"?>
<!-- Generator: Adobe Illustrator 20.1.0, SVG Export Plug-In . SVG Version: 6.00 Build 0)  -->
<svg version="1.1" id="Layer_1" xmlns="http://www.w3.org/2000/svg" xmlns:xlink="http://www.w3.org/1999/xlink" x="0px" y="0px"
	 viewBox="0 0 343 117.3" style="enable-background:new 0 0 343 117.3;" xml:space="preserve">
<style type="text/css">
	.st0{fill:#FFFFFF;}
</style>
<title>mlh-logo-white</title>
<desc>Created with Sketch.</desc>
<g id="Page-1">
	<g id="mlh-logo-white">
		<g id="Layer_1_1_">
			<g>
				<path id="Shape_18_" class="st0" d="M109.8,1.5c2.3,1,4.3,2.4,6,4.1c1.7,1.7,3,3.7,4.1,6c1,2.3,1.5,4.8,1.5,7.4v94.8
					c0,0.9-0.3,1.6-0.9,2.2s-1.3,0.9-2.2,0.9H95.6c-0.9,0-1.6-0.3-2.1-0.9s-0.8-1.3-0.8-2.2V27.6H74.4v86.2c0,0.9-0.3,1.6-0.8,2.2
					s-1.3,0.9-2.1,0.9H50.9c-0.9,0-1.6-0.3-2.2-0.9c-0.6-0.6-0.9-1.3-0.9-2.2V27.6H29.5v86.2c0,2.1-1,3.1-3.1,3.1H3.9
					c-2.1,0-3.1-1-3.1-3.1V3.1C0.8,1,1.8,0,3.9,0h98.4C105,0,107.4,0.5,109.8,1.5L109.8,1.5z"/>
				<path id="Shape_19_" class="st0" d="M220.3,88.5c0.9,0,1.7,0.3,2.2,0.9c0.6,0.6,0.9,1.4,0.9,2.3v22.1c0,0.9-0.3,1.6-0.9,2.3
					c-0.6,0.6-1.3,0.9-2.2,0.9h-77.7c-2.2,0-3.3-1.1-3.3-3.2V3.2c0-2.1,1.1-3.2,3.3-3.2h23.8c2.2,0,3.3,1.1,3.3,3.2v82.4
					c0,0.9,0.3,1.6,1,2.2c0.6,0.6,1.4,0.8,2.3,0.8L220.3,88.5L220.3,88.5L220.3,88.5L220.3,88.5z"/>
				<path id="Shape_20_" class="st0" d="M339.7,0c0.9,0,1.7,0.3,2.3,0.9s1,1.4,1,2.3v110.9c0,0.9-0.3,1.6-1,2.3
					c-0.6,0.6-1.4,0.9-2.3,0.9h-24.2c-0.9,0-1.7-0.3-2.3-0.9c-0.6-0.6-1-1.4-1-2.3V75.4c0-0.9-0.3-1.6-0.9-2.2
					c-0.6-0.6-1.3-0.8-2.3-0.8h-33.9c-0.9,0-1.7,0.3-2.3,0.8c-0.6,0.6-1,1.3-1,2.2v38.7c0,2.1-1.1,3.2-3.3,3.2h-24
					c-2.2,0-3.3-1.1-3.3-3.2V3.2c0-2.1,1.1-3.2,3.3-3.2h24c2.2,0,3.3,1.1,3.3,3.2v37.5c0,2.1,1.1,3.2,3.3,3.2H309
					c0.9,0,1.7-0.3,2.3-0.9c0.6-0.6,0.9-1.4,0.9-2.3V3.2c0-0.9,0.3-1.6,1-2.3c0.6-0.6,1.4-0.9,2.3-0.9H339.7L339.7,0z"/>
			</g>
		</g>
	</g>
</g>
</svg>
