<svg id="Layer_1" data-name="Layer 1" xmlns="http://www.w3.org/2000/svg" viewBox="0 0 231.09 45.85"><defs><style>.cls-1{isolation:isolate;font-size:41.12px;font-family:Aller-Light, Aller Light;}.cls-1,.cls-2{fill:#fff;}</style></defs><title>SHFullMock</title><text class="cls-1" transform="translate(0 35.57)">swamp</text><path class="cls-2" d="M142.37,13.35a8,8,0,0,0-4.76,1.48,9.43,9.43,0,0,0-1.51,1.34V4.7l-.57-.09a7.12,7.12,0,0,0-.78-.07l-.69,0-.71,0a7,7,0,0,0-.76.07L132,4.7V36.08l.57.09a7.1,7.1,0,0,0,.78.07l.69,0,.71,0a7,7,0,0,0,.76-.07l.57-.09V24.93a11.17,11.17,0,0,1,.48-3.43,6.89,6.89,0,0,1,1.29-2.4,5.19,5.19,0,0,1,1.91-1.4,6.16,6.16,0,0,1,2.43-.48A3.25,3.25,0,0,1,145,18.48c.67.89,1,2.44,1,4.6v13l.57.09a7.1,7.1,0,0,0,.78.07l.69,0,.71,0a7,7,0,0,0,.76-.07l.57-.09V22.26a10.26,10.26,0,0,0-1.85-6.49C147,14.17,145,13.35,142.37,13.35Z"/><path class="cls-2" d="M162.65,13.35a23.2,23.2,0,0,0-3.31.23,18.6,18.6,0,0,0-2.73.58l-.48.15v.5a7.26,7.26,0,0,0,.16,1.45,4.47,4.47,0,0,0,.42,1.26L157,18l.53-.16a18.38,18.38,0,0,1,2.34-.53,17.82,17.82,0,0,1,2.89-.22,4.56,4.56,0,0,1,3.3,1.06,4.77,4.77,0,0,1,1.07,3.48v.51l-1-.1c-.74-.07-1.62-.11-2.61-.11a13.37,13.37,0,0,0-3.66.48,8.58,8.58,0,0,0-2.95,1.46,6.93,6.93,0,0,0-2,2.42,7.28,7.28,0,0,0-.71,3.24,6.23,6.23,0,0,0,2.49,5.5,11.15,11.15,0,0,0,6.41,1.64,29.1,29.1,0,0,0,4-.29c1.38-.19,2.57-.39,3.53-.58l.55-.11V21.28c0-2.68-.73-4.7-2.16-6S165.47,13.35,162.65,13.35Zm-1.3,19.44a4.93,4.93,0,0,1-1.59-.5,2.75,2.75,0,0,1-1.07-1,3.43,3.43,0,0,1-.41-1.82,3.08,3.08,0,0,1,1.39-2.73,7.8,7.8,0,0,1,4.39-1c.6,0,1.25,0,1.93.1l1.13.12v6.67c-.52.09-1,.16-1.57.22A16.8,16.8,0,0,1,161.35,32.79Z"/><path class="cls-2" d="M192.27,33.81a6.56,6.56,0,0,0-.44-1.24l-.27-.55-.57.21a11.85,11.85,0,0,1-1.92.5,12.53,12.53,0,0,1-2.24.19A7.12,7.12,0,0,1,181.57,31c-1.27-1.24-1.91-3.27-1.91-6a11.73,11.73,0,0,1,.43-3.26,7,7,0,0,1,1.25-2.48,5.65,5.65,0,0,1,2.06-1.6,7,7,0,0,1,2.94-.57,16.08,16.08,0,0,1,2.58.2,12,12,0,0,1,2,.46l.62.22.24-.61a7.44,7.44,0,0,0,.34-1.23,6.92,6.92,0,0,0,.16-1.37v-.49l-.46-.16a14.14,14.14,0,0,0-2.36-.54,19.76,19.76,0,0,0-3.09-.23,11.6,11.6,0,0,0-4.7.9,9.56,9.56,0,0,0-3.43,2.5,10.84,10.84,0,0,0-2.06,3.71,14.54,14.54,0,0,0-.69,4.55c0,3.73,1,6.63,2.86,8.63s4.7,3,8.31,3a16.64,16.64,0,0,0,3-.26,16,16,0,0,0,2.45-.65l.54-.2-.1-.57C192.5,34.69,192.4,34.29,192.27,33.81Z"/><path class="cls-2" d="M213.43,14l-1.14-.17a10.87,10.87,0,0,0-3.39,0l-.26,0-8,10.8,9.3,11.43.26,0a13.17,13.17,0,0,0,1.86.13,9.7,9.7,0,0,0,1.59-.13l1.14-.19-9.23-11.59Z"/><path class="cls-2" d="M199.11,4.54l-.69,0-.71,0a7,7,0,0,0-.76.07l-.57.09V36.08l.57.09a7,7,0,0,0,.76.07l.71,0,.69,0a7.12,7.12,0,0,0,.78-.07l.57-.09V4.7l-.57-.09A7.12,7.12,0,0,0,199.11,4.54Z"/><path class="cls-2" d="M230.41,26.49a6.32,6.32,0,0,0-1.71-2,9,9,0,0,0-2.22-1.22c-.76-.29-1.52-.56-2.3-.82-.56-.16-1.09-.33-1.57-.52a6.23,6.23,0,0,1-1.22-.61,2.43,2.43,0,0,1-.74-.74,1.78,1.78,0,0,1-.24-1,2.22,2.22,0,0,1,.81-1.8,5.07,5.07,0,0,1,3.12-.72,12.56,12.56,0,0,1,2.63.27,21.14,21.14,0,0,1,2.13.56l.65.22.21-.66a18,18,0,0,0,.6-2.44l.09-.55-.51-.21a13.89,13.89,0,0,0-2.45-.65,17.28,17.28,0,0,0-3.23-.3c-2.7,0-4.76.58-6.1,1.73a5.78,5.78,0,0,0-2.07,4.59,5.23,5.23,0,0,0,2,4.33,7.66,7.66,0,0,0,2,1.15c.68.28,1.38.53,2.07.75l1.85.64a6,6,0,0,1,1.46.72,3.22,3.22,0,0,1,1,1,2.86,2.86,0,0,1,.33,1.48,2.6,2.6,0,0,1-1.17,2.15,5.7,5.7,0,0,1-3.49,1,14.43,14.43,0,0,1-2.63-.26,11.61,11.61,0,0,1-2.21-.6l-.62-.25-.27.61a12.89,12.89,0,0,0-.82,2.6l-.11.54.51.22a11.07,11.07,0,0,0,2.65.71,23.18,23.18,0,0,0,3.62.26,11.81,11.81,0,0,0,3.45-.48,8.42,8.42,0,0,0,2.77-1.41,6.61,6.61,0,0,0,1.86-2.29,6.73,6.73,0,0,0,.67-3A6.13,6.13,0,0,0,230.41,26.49Z"/></svg>
