<?xml version="1.0" encoding="utf-8"?>
<!-- Generator: Adobe Illustrator 20.1.0, SVG Export Plug-In . SVG Version: 6.00 Build 0)  -->
<svg version="1.1" id="Layer_1" xmlns="http://www.w3.org/2000/svg" xmlns:xlink="http://www.w3.org/1999/xlink" x="0px" y="0px"
	 viewBox="0 0 231.1 45.8" style="enable-background:new 0 0 231.1 45.8;" xml:space="preserve">
<style type="text/css">
	.st0{enable-background:new    ;}
	.st1{fill:#FFFFFF;}
</style>
<title>SHFullMock</title>
<g class="st0">
	<path class="st1" d="M3,32.7c0.6,0.2,1.4,0.5,2.3,0.6c1,0.2,1.9,0.3,2.8,0.3c1.6,0,2.9-0.4,3.9-1.1c1-0.7,1.4-1.6,1.4-2.7
		c0-0.7-0.1-1.3-0.4-1.8c-0.3-0.5-0.7-0.9-1.2-1.2c-0.5-0.3-1-0.6-1.6-0.8c-0.6-0.2-1.2-0.4-1.9-0.6c-0.7-0.2-1.4-0.5-2-0.7
		c-0.7-0.3-1.3-0.6-1.8-1c-0.5-0.4-0.9-0.9-1.3-1.5c-0.3-0.6-0.5-1.4-0.5-2.3c0-1.7,0.6-3,1.8-4.1c1.2-1,3.1-1.6,5.7-1.6
		c1.1,0,2.1,0.1,3.1,0.3c1,0.2,1.8,0.4,2.3,0.6c-0.1,0.8-0.3,1.6-0.6,2.3c-0.6-0.2-1.3-0.4-2.2-0.6c-0.9-0.2-1.8-0.3-2.8-0.3
		c-1.7,0-2.9,0.3-3.6,0.9c-0.7,0.6-1,1.4-1,2.3c0,0.5,0.1,1,0.3,1.3c0.2,0.4,0.5,0.7,0.9,0.9c0.4,0.3,0.8,0.5,1.4,0.7
		c0.5,0.2,1,0.4,1.6,0.5c0.7,0.2,1.5,0.5,2.2,0.8c0.8,0.3,1.4,0.7,2.1,1.1c0.6,0.5,1.1,1.1,1.5,1.8c0.4,0.7,0.6,1.6,0.6,2.7
		c0,1-0.2,1.9-0.6,2.7c-0.4,0.8-1,1.5-1.7,2.1c-0.7,0.6-1.6,1-2.5,1.3c-1,0.3-2.1,0.5-3.2,0.5c-1.3,0-2.5-0.1-3.5-0.2
		c-1-0.2-1.9-0.4-2.5-0.7C2.4,34.3,2.7,33.5,3,32.7z"/>
	<path class="st1" d="M19.9,14.6c0.2,0,0.4,0,0.6-0.1c0.3,0,0.5,0,0.8,0c0.2,0,0.5,0,0.8,0c0.3,0,0.6,0,0.7,0.1l4.6,17.8l5.2-17.8
		c0.2,0,0.5,0,0.7-0.1c0.3,0,0.5,0,0.8,0c0.2,0,0.4,0,0.7,0s0.5,0,0.7,0.1l5.2,17.6l4.6-17.6c0.2,0,0.4,0,0.6-0.1c0.2,0,0.5,0,0.7,0
		c0.2,0,0.5,0,0.7,0c0.3,0,0.5,0,0.7,0.1l-6,21c-0.5,0.1-1,0.1-1.4,0.1c-0.5,0-1,0-1.4-0.1l-5.1-17.4l-5.3,17.4
		c-0.5,0.1-1,0.1-1.4,0.1c-0.5,0-1,0-1.4-0.1L19.9,14.6z"/>
	<path class="st1" d="M64.7,21.7c0-1.8-0.4-3.1-1.3-4c-0.9-0.8-2.1-1.3-3.8-1.3c-1.1,0-2.1,0.1-3,0.2c-0.9,0.2-1.7,0.3-2.4,0.6
		c-0.1-0.2-0.3-0.6-0.3-1.1c-0.1-0.5-0.1-0.9-0.1-1.3c0.7-0.2,1.6-0.4,2.6-0.6c1-0.2,2.1-0.2,3.2-0.2c2.7,0,4.6,0.6,5.9,1.7
		c1.3,1.2,1.9,3,1.9,5.5v13.9c-1,0.2-2.1,0.4-3.5,0.6c-1.4,0.2-2.7,0.3-3.9,0.3c-2.5,0-4.6-0.5-6-1.5c-1.5-1-2.2-2.7-2.2-4.9
		c0-1.1,0.2-2.1,0.6-2.9c0.4-0.9,1-1.6,1.8-2.2c0.8-0.6,1.7-1,2.7-1.3c1.1-0.3,2.2-0.5,3.5-0.5c1,0,1.8,0,2.5,0.1
		c0.7,0.1,1.3,0.1,1.8,0.2V21.7z M64.7,25.4c-0.5-0.1-1-0.1-1.7-0.2c-0.7-0.1-1.4-0.1-2-0.1c-2.1,0-3.6,0.4-4.8,1.2
		c-1.1,0.8-1.7,1.9-1.7,3.3c0,0.9,0.2,1.6,0.5,2.2c0.3,0.5,0.8,1,1.3,1.3s1.2,0.5,1.8,0.6c0.7,0.1,1.3,0.1,2,0.1
		c0.8,0,1.6,0,2.4-0.1c0.7-0.1,1.5-0.2,2.2-0.3V25.4z"/>
	<path class="st1" d="M74.2,14.6c0.2,0,0.4,0,0.6-0.1c0.2,0,0.4,0,0.6,0c0.2,0,0.4,0,0.6,0c0.2,0,0.4,0,0.6,0.1
		c0.1,0.5,0.1,1.1,0.1,1.8c0,0.7,0,1.3,0,1.9c0.2-0.5,0.6-1,0.9-1.5s0.8-0.9,1.4-1.3c0.5-0.4,1.1-0.7,1.8-0.9
		c0.7-0.2,1.4-0.3,2.3-0.3c0.8,0,1.5,0.1,2.1,0.3c0.6,0.2,1.1,0.5,1.5,0.8c0.4,0.3,0.8,0.7,1.1,1.2c0.3,0.5,0.6,1,0.8,1.6
		c0.3-0.4,0.6-0.9,1-1.4c0.4-0.5,0.8-0.9,1.3-1.3c0.5-0.4,1.1-0.7,1.7-0.9c0.6-0.2,1.4-0.3,2.2-0.3c2.4,0,4.2,0.7,5.3,2.1
		c1.1,1.4,1.6,3.4,1.6,6v13.4c-0.2,0-0.4,0-0.7,0.1c-0.3,0-0.5,0-0.7,0c-0.1,0-0.4,0-0.7,0c-0.3,0-0.5,0-0.7-0.1V23.2
		c0-2.2-0.4-3.9-1.1-4.9c-0.7-1.1-1.8-1.6-3.3-1.6c-0.9,0-1.6,0.2-2.3,0.5c-0.7,0.4-1.2,0.8-1.6,1.4c-0.4,0.6-0.8,1.3-1,2.1
		c-0.2,0.8-0.3,1.7-0.3,2.6v12.3c-0.2,0-0.4,0-0.7,0.1c-0.3,0-0.5,0-0.7,0c-0.1,0-0.4,0-0.7,0c-0.3,0-0.5,0-0.7-0.1v-13
		c0-2.1-0.3-3.7-1-4.7c-0.7-1-1.6-1.5-2.9-1.5c-0.9,0-1.6,0.2-2.3,0.6c-0.7,0.4-1.3,1-1.9,1.8c-0.5,0.8-0.9,1.7-1.2,2.7
		c-0.3,1.1-0.4,2.2-0.4,3.5v10.5c-0.2,0-0.4,0-0.7,0.1c-0.3,0-0.5,0-0.7,0c-0.1,0-0.4,0-0.7,0s-0.5,0-0.7-0.1V14.6z"/>
	<path class="st1" d="M108.6,14.6c0.2,0,0.4,0,0.6-0.1c0.2,0,0.5,0,0.6,0s0.4,0,0.6,0c0.2,0,0.5,0,0.6,0.1l0.2,2.9
		c0.6-0.9,1.4-1.7,2.5-2.3c1.1-0.7,2.5-1,4.2-1c1.3,0,2.5,0.2,3.5,0.6s2,1,2.7,1.9s1.3,1.9,1.8,3.2c0.4,1.3,0.6,2.8,0.6,4.6
		c0,1.8-0.2,3.4-0.7,4.9c-0.5,1.4-1.2,2.7-2.2,3.7c-0.9,1-2.1,1.8-3.5,2.3c-1.4,0.5-3,0.8-4.7,0.8c-0.7,0-1.4-0.1-2.1-0.2
		c-0.8-0.1-1.5-0.3-2.1-0.5v9.9c-0.2,0-0.4,0-0.7,0.1c-0.3,0-0.5,0-0.7,0c-0.2,0-0.4,0-0.7,0c-0.3,0-0.5,0-0.7-0.1V14.6z
		 M111.3,32.9c0.6,0.2,1.3,0.4,2,0.6c0.7,0.1,1.6,0.2,2.7,0.2c1.1,0,2.1-0.2,3-0.5s1.8-0.9,2.5-1.6c0.7-0.7,1.3-1.7,1.7-2.8
		c0.4-1.1,0.6-2.5,0.6-4.1c0-2.5-0.5-4.5-1.4-5.9c-0.9-1.4-2.5-2.1-4.6-2.1c-0.7,0-1.4,0.1-2.1,0.3c-0.8,0.2-1.5,0.6-2.1,1.1
		c-0.6,0.5-1.2,1.2-1.6,2.1c-0.4,0.9-0.6,2-0.6,3.3V32.9z"/>
</g>
<path class="st1" d="M142.4,13.4c-1.7,0-3.4,0.5-4.8,1.5c-0.5,0.4-1.1,0.8-1.5,1.3V4.7l-0.6-0.1c-0.3,0-0.5-0.1-0.8-0.1h-0.7h-0.7
	c-0.3,0-0.5,0-0.8,0.1L132,4.7v31.4l0.6,0.1c0.3,0,0.5,0.1,0.8,0.1h0.7h0.7c0.3,0,0.5,0,0.8-0.1l0.6-0.1V24.9c0-1.2,0.1-2.3,0.5-3.4
	c0.3-0.9,0.7-1.7,1.3-2.4c0.5-0.6,1.2-1.1,1.9-1.4c0.8-0.3,1.6-0.5,2.4-0.5c1.1-0.1,2.1,0.4,2.8,1.3c0.7,0.9,1,2.4,1,4.6v13l0.6,0.1
	c0.3,0,0.5,0.1,0.8,0.1h0.7h0.7c0.3,0,0.5,0,0.8-0.1l0.6-0.1V22.3c0.1-2.3-0.5-4.6-1.9-6.5C147,14.2,145,13.4,142.4,13.4z"/>
<path class="st1" d="M162.6,13.4c-1.1,0-2.2,0.1-3.3,0.2c-0.9,0.1-1.8,0.3-2.7,0.6l-0.5,0.1v0.5c0,0.5,0.1,1,0.2,1.5
	c0.1,0.4,0.2,0.9,0.4,1.3L157,18l0.5-0.2c0.8-0.2,1.5-0.4,2.3-0.5c1-0.2,1.9-0.2,2.9-0.2c1.2-0.1,2.4,0.3,3.3,1.1
	c0.8,1,1.2,2.2,1.1,3.5v0.5l-1-0.1c-0.7-0.1-1.6-0.1-2.6-0.1c-1.2,0-2.5,0.2-3.7,0.5c-1.1,0.3-2.1,0.8-2.9,1.5
	c-0.8,0.6-1.5,1.5-2,2.4c-0.5,1-0.7,2.1-0.7,3.2c-0.2,2.1,0.8,4.2,2.5,5.5c1.9,1.2,4.2,1.8,6.4,1.6c1.3,0,2.7-0.1,4-0.3
	c1.4-0.2,2.6-0.4,3.5-0.6l0.6-0.1V21.3c0-2.7-0.7-4.7-2.2-6S165.5,13.4,162.6,13.4z M161.3,32.8c-0.6-0.1-1.1-0.2-1.6-0.5
	c-0.4-0.2-0.8-0.6-1.1-1c-0.3-0.6-0.4-1.2-0.4-1.8c-0.1-1.1,0.5-2.1,1.4-2.7c1.3-0.8,2.9-1.1,4.4-1c0.6,0,1.2,0,1.9,0.1l1.1,0.1v6.7
	c-0.5,0.1-1,0.2-1.6,0.2C164.2,33,162.7,33,161.3,32.8L161.3,32.8z"/>
<path class="st1" d="M192.3,33.8c-0.1-0.4-0.3-0.8-0.4-1.2l-0.3-0.5l-0.6,0.2c-0.6,0.2-1.3,0.4-1.9,0.5c-0.7,0.1-1.5,0.2-2.2,0.2
	c-1.9,0.1-3.8-0.6-5.3-1.9c-1.3-1.2-1.9-3.3-1.9-6c0-1.1,0.1-2.2,0.4-3.3c0.2-0.9,0.7-1.7,1.2-2.5c0.6-0.7,1.3-1.2,2.1-1.6
	c0.9-0.4,1.9-0.6,2.9-0.6c0.9,0,1.7,0.1,2.6,0.2c0.7,0.1,1.3,0.2,2,0.5l0.6,0.2l0.2-0.6c0.1-0.4,0.3-0.8,0.3-1.2
	c0.1-0.5,0.2-0.9,0.2-1.4v-0.5l-0.5-0.2c-0.8-0.2-1.6-0.4-2.4-0.5c-1-0.2-2.1-0.2-3.1-0.2c-1.6,0-3.2,0.3-4.7,0.9
	c-1.3,0.6-2.5,1.4-3.4,2.5c-0.9,1.1-1.6,2.3-2.1,3.7c-0.5,1.5-0.7,3-0.7,4.5c0,3.7,1,6.6,2.9,8.6s4.7,3,8.3,3c1,0,2-0.1,3-0.3
	c0.8-0.2,1.7-0.4,2.4-0.7l0.5-0.2l-0.1-0.6C192.5,34.7,192.4,34.3,192.3,33.8z"/>
<path class="st1" d="M213.4,14l-1.1-0.2c-1.1-0.2-2.3-0.2-3.4,0h-0.3l-8,10.8l9.3,11.4h0.3c0.6,0.1,1.2,0.1,1.9,0.1
	c0.5,0,1.1,0,1.6-0.1l1.1-0.2l-9.2-11.6L213.4,14z"/>
<path class="st1" d="M199.1,4.5h-0.7h-0.7c-0.3,0-0.5,0-0.8,0.1l-0.6,0.1v31.4l0.6,0.1c0.3,0,0.5,0.1,0.8,0.1h0.7h0.7
	c0.3,0,0.5,0,0.8-0.1l0.6-0.1V4.7l-0.6-0.1C199.6,4.6,199.4,4.5,199.1,4.5z"/>
<path class="st1" d="M230.4,26.5c-0.4-0.8-1-1.5-1.7-2c-0.7-0.5-1.4-0.9-2.2-1.2c-0.8-0.3-1.5-0.6-2.3-0.8c-0.6-0.2-1.1-0.3-1.6-0.5
	c-0.4-0.2-0.8-0.4-1.2-0.6c-0.3-0.2-0.6-0.4-0.7-0.7c-0.2-0.3-0.3-0.7-0.2-1c0-0.7,0.3-1.4,0.8-1.8c0.9-0.6,2-0.8,3.1-0.7
	c0.9,0,1.8,0.1,2.6,0.3c0.7,0.1,1.4,0.3,2.1,0.6l0.6,0.2l0.2-0.7c0.3-0.8,0.5-1.6,0.6-2.4l0.1-0.6l-0.5-0.2
	c-0.8-0.3-1.6-0.5-2.4-0.6c-1.1-0.2-2.1-0.3-3.2-0.3c-2.7,0-4.8,0.6-6.1,1.7c-1.4,1.1-2.1,2.8-2.1,4.6c-0.1,1.7,0.7,3.3,2,4.3
	c0.6,0.5,1.3,0.9,2,1.1c0.7,0.3,1.4,0.5,2.1,0.8l1.9,0.6c0.5,0.2,1,0.4,1.5,0.7c0.4,0.3,0.7,0.6,1,1c0.2,0.5,0.4,1,0.3,1.5
	c0,0.9-0.4,1.7-1.2,2.1c-1,0.7-2.2,1.1-3.5,1c-0.9,0-1.8-0.1-2.6-0.3c-0.8-0.1-1.5-0.3-2.2-0.6l-0.6-0.2l-0.3,0.6
	c-0.4,0.8-0.6,1.7-0.8,2.6l-0.1,0.5l0.5,0.2c0.9,0.3,1.7,0.6,2.6,0.7c1.2,0.2,2.4,0.3,3.6,0.3c1.2,0,2.3-0.2,3.4-0.5
	c1-0.3,1.9-0.8,2.8-1.4c0.8-0.6,1.4-1.4,1.9-2.3c0.5-0.9,0.7-2,0.7-3C231.2,28.4,230.9,27.4,230.4,26.5z"/>
</svg>
